<svg width="540" height="120" viewBox="0 0 540 120" role="img" xmlns="http://www.w3.org/2000/svg">
<title>Greenway Community Trust - Standard Logo</title>
<desc>Standard logo for Greenway Community Trust featuring leaf icon and organisation name</desc>
<g transform="translate(20, 15)">
  <circle cx="45" cy="45" r="45" fill="#1A5C3A"/>
  <path d="M45 16 C45 16 20 37 20 53 C20 67 31 78 45 78 C59 78 70 67 70 53 C70 37 45 16 45 16Z" fill="#F8F9FA"/>
  <path d="M45 32 C45 32 33 45 33 56 C33 63 38 69 45 69 C52 69 57 63 57 56 C57 45 45 32 45 32Z" fill="#2D9E6B"/>
  <line x1="45" y1="69" x2="45" y2="78" stroke="#F8F9FA" stroke-width="2.5" stroke-linecap="round"/>
  <line x1="45" y1="57" x2="35" y2="49" stroke="#F8F9FA" stroke-width="2" stroke-linecap="round"/>
  <line x1="45" y1="57" x2="55" y2="49" stroke="#F8F9FA" stroke-width="2" stroke-linecap="round"/>
</g>
<text x="140" y="52" font-family="Raleway, Montserrat, sans-serif" font-size="38" font-weight="700" fill="#1A5C3A" letter-spacing="1">Greenway</text>
<text x="140" y="87" font-family="Raleway, Montserrat, sans-serif" font-size="24" font-weight="400" fill="#1B1B1B" letter-spacing="2">COMMUNITY TRUST</text>
</svg>
