<svg width="150" height="150" viewBox="0 0 150 150" role="img" xmlns="http://www.w3.org/2000/svg">
<title>Greenway Community Trust - Icon</title>
<desc>Icon only version of the Greenway Community Trust logo - a leaf within a green circle</desc>
<circle cx="75" cy="75" r="75" fill="#1A5C3A"/>
<path d="M75 28 C75 28 39 57 39 80 C39 101 55 117 75 117 C95 117 111 101 111 80 C111 57 75 28 75 28Z" fill="#F8F9FA"/>
<path d="M75 51 C75 51 57 70 57 84 C57 95 65 104 75 104 C85 104 93 95 93 84 C93 70 75 51 75 51Z" fill="#2D9E6B"/>
<line x1="75" y1="104" x2="75" y2="117" stroke="#F8F9FA" stroke-width="3.5" stroke-linecap="round"/>
<line x1="75" y1="87" x2="61" y2="75" stroke="#F8F9FA" stroke-width="2.5" stroke-linecap="round"/>
<line x1="75" y1="87" x2="89" y2="75" stroke="#F8F9FA" stroke-width="2.5" stroke-linecap="round"/>
</svg>
